<?xml version="1.0" standalone="no"?><!DOCTYPE svg PUBLIC "-//W3C//DTD SVG 1.1//EN" "http://www.w3.org/Graphics/SVG/1.1/DTD/svg11.dtd"><svg class="icon" width="200px" height="200.00px" viewBox="0 0 1024 1024" version="1.1" xmlns="http://www.w3.org/2000/svg"><path fill="#333333" d="M767.068 766.075H383.347c-27.386 0-51.461-18.137-59.015-44.46l-116.17-404.748H64.092V194.07h190.325c27.386 0 51.462 18.137 59.016 44.46l24.027 83.712h520.57a61.398 61.398 0 0 1 59.072 78.136L826.14 721.413c-7.486 26.424-31.61 44.662-59.072 44.662zM429.602 643.278H720.65l56.17-198.24H372.703l56.898 198.24zM386.14 894.49a61.497 61.497 0 1 0 125.86 0 61.497 61.497 0 1 0-125.86 0zM638.138 894.49a61.497 61.497 0 1 0 125.86 0 61.497 61.497 0 1 0-125.86 0z" /></svg>